<svg width="40" height="40" viewBox="0 0 40 40" fill="none" xmlns="http://www.w3.org/2000/svg">
<path d="M18.333 6.66675H8.13301C6.45285 6.66675 5.61277 6.66675 4.97104 6.99373C4.40655 7.28135 3.94761 7.74029 3.65999 8.30478C3.33301 8.94651 3.33301 9.78659 3.33301 11.4667V31.8667C3.33301 33.5469 3.33301 34.387 3.65999 35.0287C3.94761 35.5932 4.40655 36.0521 4.97104 36.3398C5.61277 36.6667 6.45285 36.6667 8.13301 36.6667H28.533C30.2132 36.6667 31.0532 36.6667 31.695 36.3398C32.2595 36.0521 32.7184 35.5932 33.006 35.0287C33.333 34.387 33.333 33.5469 33.333 31.8667V21.6667" stroke="#D9D9D9" stroke-width="2" stroke-linecap="round" stroke-linejoin="round"/>
<path d="M13.333 22.9922C13.333 22.5031 13.333 22.2585 13.3883 22.0283C13.4373 21.8242 13.5181 21.6291 13.6277 21.4502C13.7514 21.2483 13.9244 21.0754 14.2703 20.7295L30.8331 4.16674C31.1848 3.81499 31.3607 3.63911 31.529 3.51244C32.5973 2.70837 34.0688 2.70837 35.1371 3.51244C35.3054 3.63911 35.4813 3.81499 35.833 4.16675C36.1848 4.5185 36.3607 4.69438 36.4874 4.86268C37.2914 5.931 37.2914 7.40249 36.4874 8.47081C36.3607 8.63912 36.1848 8.81499 35.8331 9.16675L19.2703 25.7295C18.9244 26.0754 18.7515 26.2483 18.5496 26.372C18.3707 26.4817 18.1756 26.5625 17.9715 26.6115C17.7413 26.6667 17.4967 26.6667 17.0076 26.6667H13.333V22.9922Z" fill="#D9D9D9"/>
</svg>
